<?xml version="1.0" encoding="UTF-8" standalone="no"?>
<!-- Generator: Adobe Illustrator 18.1.1, SVG Export Plug-In . SVG Version: 6.00 Build 0)  -->

<svg
   version="1.1"
   id="Capa_1"
   x="0px"
   y="0px"
   viewBox="0 0 14.999999 14.999999"
   xml:space="preserve"
   sodipodi:docname="hi_speed.svg"
   width="14.999999"
   height="14.999999"
   inkscape:version="1.2.2 (b0a8486541, 2022-12-01)"
   xmlns:inkscape="http://www.inkscape.org/namespaces/inkscape"
   xmlns:sodipodi="http://sodipodi.sourceforge.net/DTD/sodipodi-0.dtd"
   xmlns="http://www.w3.org/2000/svg"
   xmlns:svg="http://www.w3.org/2000/svg"><defs
   id="defs2672" /><sodipodi:namedview
   id="namedview2670"
   pagecolor="#505050"
   bordercolor="#ffffff"
   borderopacity="1"
   inkscape:showpageshadow="0"
   inkscape:pageopacity="0"
   inkscape:pagecheckerboard="1"
   inkscape:deskcolor="#505050"
   showgrid="false"
   inkscape:zoom="15.121946"
   inkscape:cx="2.7774203"
   inkscape:cy="13.754843"
   inkscape:window-width="1920"
   inkscape:window-height="1017"
   inkscape:window-x="1912"
   inkscape:window-y="-8"
   inkscape:window-maximized="1"
   inkscape:current-layer="Capa_1" />
<g
   id="g2637"
   transform="matrix(-0.03325861,0,0,0.03285471,15.092192,1.687256e-5)"
   style="fill:#ffffff;fill-opacity:1">
	<path
   d="m 440.358,456.555 c -3.084,0 -6.141,-1.063 -8.599,-3.112 l -257.82,-214.85 c -3.063,-2.553 -4.833,-6.329 -4.833,-10.316 0,-3.986 1.769,-7.763 4.833,-10.316 L 431.759,3.111 c 3.993,-3.336 9.568,-4.049 14.292,-1.846 4.717,2.21 7.732,6.952 7.732,12.162 v 429.7 c 0,5.21 -3.014,9.952 -7.732,12.162 -1.819,0.846 -3.763,1.266 -5.693,1.266 z M 203.509,228.277 426.926,414.459 V 42.094 Z"
   id="path2633"
   style="fill:#ffffff;fill-opacity:1" />
	<path
   d="m 274.024,456.555 c -3.084,0 -6.141,-1.063 -8.599,-3.112 L 7.605,238.592 c -3.063,-2.553 -4.833,-6.329 -4.833,-10.316 0,-3.986 1.769,-7.763 4.833,-10.316 L 265.425,3.11 c 3.993,-3.336 9.564,-4.049 14.292,-1.846 4.717,2.21 7.732,6.952 7.732,12.162 v 66.532 c 0,7.413 -6.011,13.428 -13.428,13.428 -7.417,0 -13.428,-6.015 -13.428,-13.428 V 42.094 L 37.175,228.277 260.592,414.459 v -37.865 c 0,-7.413 6.011,-13.428 13.428,-13.428 7.417,0 13.428,6.015 13.428,13.428 v 66.532 c 0,5.21 -3.014,9.952 -7.732,12.162 -1.818,0.847 -3.762,1.267 -5.692,1.267 z"
   id="path2635"
   style="fill:#ffffff;fill-opacity:1" />
</g>
<g
   id="g2639"
   transform="translate(-2.772,5.1355073e-4)">
</g>
<g
   id="g2641"
   transform="translate(-2.772,5.1355073e-4)">
</g>
<g
   id="g2643"
   transform="translate(-2.772,5.1355073e-4)">
</g>
<g
   id="g2645"
   transform="translate(-2.772,5.1355073e-4)">
</g>
<g
   id="g2647"
   transform="translate(-2.772,5.1355073e-4)">
</g>
<g
   id="g2649"
   transform="translate(-2.772,5.1355073e-4)">
</g>
<g
   id="g2651"
   transform="translate(-2.772,5.1355073e-4)">
</g>
<g
   id="g2653"
   transform="translate(-2.772,5.1355073e-4)">
</g>
<g
   id="g2655"
   transform="translate(-2.772,5.1355073e-4)">
</g>
<g
   id="g2657"
   transform="translate(-2.772,5.1355073e-4)">
</g>
<g
   id="g2659"
   transform="translate(-2.772,5.1355073e-4)">
</g>
<g
   id="g2661"
   transform="translate(-2.772,5.1355073e-4)">
</g>
<g
   id="g2663"
   transform="translate(-2.772,5.1355073e-4)">
</g>
<g
   id="g2665"
   transform="translate(-2.772,5.1355073e-4)">
</g>
<g
   id="g2667"
   transform="translate(-2.772,5.1355073e-4)">
</g>
</svg>
