<?xml version="1.0" encoding="UTF-8" standalone="no"?>
<!-- Generator: Adobe Illustrator 19.1.0, SVG Export Plug-In . SVG Version: 6.00 Build 0)  -->

<svg
   version="1.1"
   id="Capa_1"
   x="0px"
   y="0px"
   viewBox="0 0 15 15.000001"
   xml:space="preserve"
   sodipodi:docname="lamp_off.svg"
   width="15"
   height="15.000001"
   inkscape:export-filename="lamp_on.png"
   inkscape:export-xdpi="96"
   inkscape:export-ydpi="96"
   inkscape:version="1.2.2 (b0a8486541, 2022-12-01)"
   xmlns:inkscape="http://www.inkscape.org/namespaces/inkscape"
   xmlns:sodipodi="http://sodipodi.sourceforge.net/DTD/sodipodi-0.dtd"
   xmlns="http://www.w3.org/2000/svg"
   xmlns:svg="http://www.w3.org/2000/svg"><defs
   id="defs87">
	
	
	
	
	
	
	
	
	
</defs><sodipodi:namedview
   id="namedview85"
   pagecolor="#505050"
   bordercolor="#ffffff"
   borderopacity="1"
   inkscape:showpageshadow="0"
   inkscape:pageopacity="0"
   inkscape:pagecheckerboard="1"
   inkscape:deskcolor="#505050"
   showgrid="false"
   inkscape:zoom="31.278316"
   inkscape:cx="7.1455254"
   inkscape:cy="7.3853081"
   inkscape:window-width="1920"
   inkscape:window-height="1017"
   inkscape:window-x="1912"
   inkscape:window-y="-8"
   inkscape:window-maximized="1"
   inkscape:current-layer="Capa_1" />
<g
   id="g32"
   transform="translate(-4.622,-10e-4)">
	<g
   id="g2">
	</g>
	<g
   id="g4">
	</g>
	<g
   id="g6">
	</g>
	<g
   id="g8">
	</g>
	<g
   id="g10">
	</g>
	<g
   id="g12">
	</g>
	<g
   id="g14">
	</g>
	<g
   id="g16">
	</g>
	<g
   id="g18">
	</g>
	<g
   id="g20">
	</g>
	<g
   id="g22">
	</g>
	<g
   id="g24">
	</g>
	<g
   id="g26">
	</g>
	<g
   id="g28">
	</g>
	<g
   id="g30">
	</g>
</g>
<path
   style="fill:#ffffff;stroke-width:0.0343399;fill-opacity:1"
   d="M 9.4767856,11.466232 H 7.7902213 V 9.0629287 C 8.2760929,8.9173986 8.6485134,8.4655179 8.6485134,7.9311372 c 0,-0.6517425 -0.5430308,-1.1811623 -1.2081196,-1.1811623 -0.6650887,0 -1.2061761,0.5294198 -1.2061761,1.1811623 0,0.5343467 0.3760299,0.9862274 0.8619014,1.1317915 V 11.466232 H 5.4006704 c -0.1904616,0 -0.3447953,0.136322 -0.3447953,0.322796 0,0.186474 0.1543337,0.322796 0.3447953,0.322796 h 4.0761152 c 0.1904616,0 0.3447952,-0.136322 0.3447952,-0.322796 0,-0.186474 -0.1543336,-0.322796 -0.3447952,-0.322796 z M 6.9218648,7.9311712 c 0,-0.2794056 0.2321078,-0.5066542 0.5168632,-0.5066542 0.2847554,0 0.5168632,0.2278262 0.5168632,0.5066542 0,0.2794056 -0.2321078,0.5066542 -0.5168632,0.5066542 -0.2847554,0 -0.5168632,-0.2278602 -0.5168632,-0.5066542 z"
   id="path34" /><path
   style="fill:#ffffff;stroke-width:0.0343399;fill-opacity:1"
   d="M 9.1265069,12.859352 H 5.7509838 c -0.1904617,0 -0.3447953,0.153006 -0.3447953,0.33948 0,0.186474 0.1543336,0.340091 0.3447953,0.340091 h 3.3755231 c 0.1904616,0 0.3447953,-0.153617 0.3447953,-0.340091 0,-0.185863 -0.1543337,-0.33948 -0.3447953,-0.33948 z"
   id="path36" /><path
   style="fill:#ffffff;stroke-width:0.0343399;fill-opacity:1"
   d="M 8.9378846,14.32043 H 5.939606 c -0.1904616,0 -0.3447952,0.153311 -0.3447952,0.339785 0,0.186475 0.1543336,0.339786 0.3447952,0.339786 h 2.9982786 c 0.1904617,0 0.3447953,-0.153311 0.3447953,-0.339786 0,-0.186474 -0.1543336,-0.339785 -0.3447953,-0.339785 z"
   id="path38" /><path
   style="fill:#ffffff;stroke-width:0.0343399;fill-opacity:1"
   d="m 7.438728,3.0769956 c -2.3344739,0 -4.2335029,1.8592722 -4.2335029,4.1442618 0,1.6865932 1.0355658,3.1381906 2.5157388,3.7845306 0.5174879,0.239243 0.8855355,-0.332174 0.4048004,-0.564214 C 4.8201233,9.9295517 3.894191,8.6800245 3.894191,7.2212574 c 0,-1.9126526 1.5897717,-3.4697537 3.543947,-3.4697537 1.9535506,0 3.543322,1.5571011 3.543322,3.4697537 0,1.4539761 -0.919824,2.7004792 -2.2186974,3.2155256 -0.4691089,0.184062 -0.2357865,0.834004 0.397443,0.566593 C 10.63729,10.355847 11.670426,8.9060498 11.670426,7.2212574 11.671641,4.9362678 9.7725772,3.0769956 7.438728,3.0769956 Z"
   id="path40" />
<g
   id="g54"
   transform="translate(-4.622,-10e-4)">
</g>
<g
   id="g56"
   transform="translate(-4.622,-10e-4)">
</g>
<g
   id="g58"
   transform="translate(-4.622,-10e-4)">
</g>
<g
   id="g60"
   transform="translate(-4.622,-10e-4)">
</g>
<g
   id="g62"
   transform="translate(-4.622,-10e-4)">
</g>
<g
   id="g64"
   transform="translate(-4.622,-10e-4)">
</g>
<g
   id="g66"
   transform="translate(-4.622,-10e-4)">
</g>
<g
   id="g68"
   transform="translate(-4.622,-10e-4)">
</g>
<g
   id="g70"
   transform="translate(-4.622,-10e-4)">
</g>
<g
   id="g72"
   transform="translate(-4.622,-10e-4)">
</g>
<g
   id="g74"
   transform="translate(-4.622,-10e-4)">
</g>
<g
   id="g76"
   transform="translate(-4.622,-10e-4)">
</g>
<g
   id="g78"
   transform="translate(-4.622,-10e-4)">
</g>
<g
   id="g80"
   transform="translate(-4.622,-10e-4)">
</g>
<g
   id="g82"
   transform="translate(-4.622,-10e-4)">
</g>
</svg>
