<?xml version="1.0" encoding="UTF-8" standalone="no"?>
<!-- Generator: Adobe Illustrator 19.1.0, SVG Export Plug-In . SVG Version: 6.00 Build 0)  -->

<svg
   version="1.1"
   id="Capa_1"
   x="0px"
   y="0px"
   viewBox="0 0 15 15.000001"
   xml:space="preserve"
   sodipodi:docname="lamp_on.svg"
   width="15"
   height="15.000001"
   inkscape:version="1.2.2 (b0a8486541, 2022-12-01)"
   xmlns:inkscape="http://www.inkscape.org/namespaces/inkscape"
   xmlns:sodipodi="http://sodipodi.sourceforge.net/DTD/sodipodi-0.dtd"
   xmlns="http://www.w3.org/2000/svg"
   xmlns:svg="http://www.w3.org/2000/svg"><defs
   id="defs1343" /><sodipodi:namedview
   id="namedview1341"
   pagecolor="#505050"
   bordercolor="#ffffff"
   borderopacity="1"
   inkscape:showpageshadow="0"
   inkscape:pageopacity="0"
   inkscape:pagecheckerboard="1"
   inkscape:deskcolor="#505050"
   showgrid="false"
   inkscape:zoom="31.278316"
   inkscape:cx="6.234351"
   inkscape:cy="7.9927577"
   inkscape:window-width="1920"
   inkscape:window-height="1017"
   inkscape:window-x="1912"
   inkscape:window-y="-8"
   inkscape:window-maximized="1"
   inkscape:current-layer="Capa_1" />
<g
   id="g1288"
   transform="translate(-4.622,-10e-4)">
	<g
   id="g1258">
	</g>
	<g
   id="g1260">
	</g>
	<g
   id="g1262">
	</g>
	<g
   id="g1264">
	</g>
	<g
   id="g1266">
	</g>
	<g
   id="g1268">
	</g>
	<g
   id="g1270">
	</g>
	<g
   id="g1272">
	</g>
	<g
   id="g1274">
	</g>
	<g
   id="g1276">
	</g>
	<g
   id="g1278">
	</g>
	<g
   id="g1280">
	</g>
	<g
   id="g1282">
	</g>
	<g
   id="g1284">
	</g>
	<g
   id="g1286">
	</g>
</g>
<g
   id="g1308"
   transform="matrix(0.03470511,0,0,0.03397855,-0.16040702,-3.397855e-5)"
   style="fill:#ffffff;fill-opacity:1">
	<path
   style="fill:#ffffff;fill-opacity:1"
   d="m 277.688,337.456 h -48.597 v -70.73 c 14,-4.283 24.731,-17.582 24.731,-33.309 0,-19.181 -15.647,-34.762 -34.811,-34.762 -19.164,0 -34.755,15.581 -34.755,34.762 0,15.726 10.835,29.025 24.835,33.309 v 70.73 h -48.853 c -5.488,0 -9.935,4.012 -9.935,9.5 0,5.488 4.447,9.5 9.935,9.5 h 117.45 c 5.488,0 9.935,-4.012 9.935,-9.5 0,-5.488 -4.447,-9.5 -9.935,-9.5 z M 204.07,233.418 c 0,-8.223 6.688,-14.911 14.893,-14.911 8.205,0 14.893,6.705 14.893,14.911 0,8.223 -6.688,14.911 -14.893,14.911 -8.205,0 -14.893,-6.706 -14.893,-14.911 z"
   id="path1290" />
	<path
   style="fill:#ffffff;fill-opacity:1"
   d="m 267.595,378.456 h -97.263 c -5.488,0 -9.935,4.503 -9.935,9.991 0,5.488 4.447,10.009 9.935,10.009 h 97.263 c 5.488,0 9.935,-4.521 9.935,-10.009 0,-5.47 -4.447,-9.991 -9.935,-9.991 z"
   id="path1292" />
	<path
   style="fill:#ffffff;fill-opacity:1"
   d="m 262.16,421.456 h -86.393 c -5.488,0 -9.935,4.512 -9.935,10 0,5.488 4.447,10 9.935,10 h 86.393 c 5.488,0 9.935,-4.512 9.935,-10 0,-5.488 -4.447,-10 -9.935,-10 z"
   id="path1294" />
	<path
   style="fill:#ffffff;fill-opacity:1"
   d="m 218.963,90.558 c -67.266,0 -121.985,54.719 -121.985,121.967 0,49.637 29.839,92.358 72.489,111.38 14.911,7.041 25.516,-9.776 11.664,-16.605 -37.621,-15.069 -64.301,-51.843 -64.301,-94.775 0,-56.29 45.808,-102.116 102.116,-102.116 56.29,0 102.098,45.826 102.098,102.116 0,42.791 -26.504,79.476 -63.93,94.634 -13.517,5.417 -6.794,24.545 11.452,16.675 42.561,-19.057 72.33,-61.725 72.33,-111.309 C 340.931,145.277 286.211,90.558 218.963,90.558 Z"
   id="path1296" />
	<path
   style="fill:#ffffff;fill-opacity:1"
   d="m 218.092,71.148 c 5.841,0 11,-4.729 11,-10.57 v -49.99 c 0,-5.841 -5.142,-10.587 -11,-10.587 -5.841,0 -11,4.747 -11,10.587 V 60.56 c 0,5.841 5.142,10.588 11,10.588 z"
   id="path1298" />
	<path
   style="fill:#ffffff;fill-opacity:1"
   d="m 65.199,207.456 h -49.99 c -5.841,0 -10.587,4.659 -10.587,10.5 0,5.841 4.747,10.5 10.587,10.5 h 49.99 c 5.858,0 10.587,-4.642 10.587,-10.5 0,-5.841 -4.747,-10.5 -10.587,-10.5 z"
   id="path1300" />
	<path
   style="fill:#ffffff;fill-opacity:1"
   d="m 101.125,110.727 c 4.129,4.129 10.834,4.129 14.964,0 4.147,-4.129 4.147,-10.834 0,-14.964 L 80.744,60.419 c -4.129,-4.129 -10.834,-4.129 -14.964,0 -4.13,4.129 -4.129,10.834 0,14.964 z"
   id="path1302" />
	<path
   style="fill:#ffffff;fill-opacity:1"
   d="m 426.248,207.456 h -49.99 c -5.858,0 -10.587,4.659 -10.587,10.5 0,5.858 4.729,10.5 10.587,10.5 h 49.99 c 5.841,0 10.587,-4.659 10.587,-10.5 0,-5.841 -4.746,-10.5 -10.587,-10.5 z"
   id="path1304" />
	<path
   style="fill:#ffffff;fill-opacity:1"
   d="m 340.313,110.727 35.344,-35.344 c 4.129,-4.129 4.129,-10.835 0,-14.964 -4.147,-4.129 -10.834,-4.129 -14.964,0 L 325.35,95.763 c -4.129,4.129 -4.129,10.834 0,14.964 4.129,4.129 10.834,4.129 14.963,0 z"
   id="path1306" />
</g>
<g
   id="g1310"
   transform="translate(-4.622,-10e-4)">
</g>
<g
   id="g1312"
   transform="translate(-4.622,-10e-4)">
</g>
<g
   id="g1314"
   transform="translate(-4.622,-10e-4)">
</g>
<g
   id="g1316"
   transform="translate(-4.622,-10e-4)">
</g>
<g
   id="g1318"
   transform="translate(-4.622,-10e-4)">
</g>
<g
   id="g1320"
   transform="translate(-4.622,-10e-4)">
</g>
<g
   id="g1322"
   transform="translate(-4.622,-10e-4)">
</g>
<g
   id="g1324"
   transform="translate(-4.622,-10e-4)">
</g>
<g
   id="g1326"
   transform="translate(-4.622,-10e-4)">
</g>
<g
   id="g1328"
   transform="translate(-4.622,-10e-4)">
</g>
<g
   id="g1330"
   transform="translate(-4.622,-10e-4)">
</g>
<g
   id="g1332"
   transform="translate(-4.622,-10e-4)">
</g>
<g
   id="g1334"
   transform="translate(-4.622,-10e-4)">
</g>
<g
   id="g1336"
   transform="translate(-4.622,-10e-4)">
</g>
<g
   id="g1338"
   transform="translate(-4.622,-10e-4)">
</g>
</svg>
