<?xml version="1.0" encoding="UTF-8" standalone="no"?>
<!-- Generator: Adobe Illustrator 18.1.1, SVG Export Plug-In . SVG Version: 6.00 Build 0)  -->

<svg
   version="1.1"
   id="Capa_1"
   x="0px"
   y="0px"
   viewBox="0 0 14.999999 14.999999"
   xml:space="preserve"
   sodipodi:docname="low_speed.svg"
   width="14.999999"
   height="14.999999"
   inkscape:version="1.2.2 (b0a8486541, 2022-12-01)"
   inkscape:export-filename="low_speed.png"
   inkscape:export-xdpi="96"
   inkscape:export-ydpi="96"
   xmlns:inkscape="http://www.inkscape.org/namespaces/inkscape"
   xmlns:sodipodi="http://sodipodi.sourceforge.net/DTD/sodipodi-0.dtd"
   xmlns="http://www.w3.org/2000/svg"
   xmlns:svg="http://www.w3.org/2000/svg"><defs
   id="defs2672">
	
	
</defs><sodipodi:namedview
   id="namedview2670"
   pagecolor="#505050"
   bordercolor="#ffffff"
   borderopacity="1"
   inkscape:showpageshadow="0"
   inkscape:pageopacity="0"
   inkscape:pagecheckerboard="1"
   inkscape:deskcolor="#505050"
   showgrid="false"
   inkscape:zoom="15.121946"
   inkscape:cx="2.7774203"
   inkscape:cy="13.754843"
   inkscape:window-width="1920"
   inkscape:window-height="1017"
   inkscape:window-x="1912"
   inkscape:window-y="-8"
   inkscape:window-maximized="1"
   inkscape:current-layer="Capa_1" />
<path
   d="m 3.4464968,14.999999 c 0.1025696,0 0.2042411,-0.03493 0.2859908,-0.102244 L 12.307223,7.8389207 c 0.101871,-0.083878 0.160738,-0.2079375 0.160738,-0.3389292 0,-0.1309589 -0.05883,-0.2550511 -0.160738,-0.3389292 L 3.7324876,0.10222788 C 3.599686,-0.00737544 3.4142692,-0.03080085 3.2571556,0.04157808 3.1002747,0.11418699 3,0.26998402 3,0.44115706 V 14.558826 c 0,0.171173 0.1002414,0.32697 0.2571556,0.399579 0.060497,0.02779 0.1251521,0.04159 0.1893412,0.04159 z M 11.323766,7.4999915 3.8932265,13.616947 V 1.383003 Z"
   id="path2633"
   style="fill:#ffffff;fill-opacity:1;stroke-width:0.033056" />
<g
   id="g2639"
   transform="translate(-2.772,5.1355073e-4)">
</g>
<g
   id="g2641"
   transform="translate(-2.772,5.1355073e-4)">
</g>
<g
   id="g2643"
   transform="translate(-2.772,5.1355073e-4)">
</g>
<g
   id="g2645"
   transform="translate(-2.772,5.1355073e-4)">
</g>
<g
   id="g2647"
   transform="translate(-2.772,5.1355073e-4)">
</g>
<g
   id="g2649"
   transform="translate(-2.772,5.1355073e-4)">
</g>
<g
   id="g2651"
   transform="translate(-2.772,5.1355073e-4)">
</g>
<g
   id="g2653"
   transform="translate(-2.772,5.1355073e-4)">
</g>
<g
   id="g2655"
   transform="translate(-2.772,5.1355073e-4)">
</g>
<g
   id="g2657"
   transform="translate(-2.772,5.1355073e-4)">
</g>
<g
   id="g2659"
   transform="translate(-2.772,5.1355073e-4)">
</g>
<g
   id="g2661"
   transform="translate(-2.772,5.1355073e-4)">
</g>
<g
   id="g2663"
   transform="translate(-2.772,5.1355073e-4)">
</g>
<g
   id="g2665"
   transform="translate(-2.772,5.1355073e-4)">
</g>
<g
   id="g2667"
   transform="translate(-2.772,5.1355073e-4)">
</g>
</svg>
